<?xml version="1.0" encoding="UTF-8"?>
<svg version="1.1" xmlns="http://www.w3.org/2000/svg" width="1200" height="630">
<path d="M0 0 C396 0 792 0 1200 0 C1200 207.9 1200 415.8 1200 630 C804 630 408 630 0 630 C0 422.1 0 214.2 0 0 Z " fill="#FEFEFE" transform="translate(0,0)"/>
<path d="M0 0 C71.94 0 143.88 0 218 0 C218 0.66 218 1.32 218 2 C219.32 2 220.64 2 222 2 C222 2.66 222 3.32 222 4 C223.32 4 224.64 4 226 4 C226 4.66 226 5.32 226 6 C227.32 6 228.64 6 230 6 C230 6.66 230 7.32 230 8 C230.66 8 231.32 8 232 8 C232 8.66 232 9.32 232 10 C232.66 10 233.32 10 234 10 C234 10.66 234 11.32 234 12 C234.66 12 235.32 12 236 12 C236 13.32 236 14.64 236 16 C236.66 16 237.32 16 238 16 C238 17.32 238 18.64 238 20 C238.66 20 239.32 20 240 20 C240 81.38 240 142.76 240 206 C239.34 206 238.68 206 238 206 C238 207.32 238 208.64 238 210 C237.34 210 236.68 210 236 210 C236 211.32 236 212.64 236 214 C235.34 214 234.68 214 234 214 C234 214.66 234 215.32 234 216 C233.34 216 232.68 216 232 216 C232 216.66 232 217.32 232 218 C231.34 218 230.68 218 230 218 C230 218.66 230 219.32 230 220 C229.34 220 228.68 220 228 220 C228 220.66 228 221.32 228 222 C226.68 222 225.36 222 224 222 C224 222.66 224 223.32 224 224 C222.02 224 220.04 224 218 224 C218 224.66 218 225.32 218 226 C145.4 226 72.8 226 -2 226 C-2 225.34 -2 224.68 -2 224 C-3.32 224 -4.64 224 -6 224 C-6 223.34 -6 222.68 -6 222 C-7.32 222 -8.64 222 -10 222 C-10 221.34 -10 220.68 -10 220 C-10.66 220 -11.32 220 -12 220 C-12 219.34 -12 218.68 -12 218 C-12.66 218 -13.32 218 -14 218 C-14 217.34 -14 216.68 -14 216 C-14.66 216 -15.32 216 -16 216 C-16 215.34 -16 214.68 -16 214 C-16.66 214 -17.32 214 -18 214 C-18 212.68 -18 211.36 -18 210 C-18.66 210 -19.32 210 -20 210 C-20 208.68 -20 207.36 -20 206 C-20.66 206 -21.32 206 -22 206 C-22 144.62 -22 83.24 -22 20 C-21.34 20 -20.68 20 -20 20 C-20 18.68 -20 17.36 -20 16 C-19.34 16 -18.68 16 -18 16 C-18 15.34 -18 14.68 -18 14 C-17.34 14 -16.68 14 -16 14 C-16 12.68 -16 11.36 -16 10 C-15.34 10 -14.68 10 -14 10 C-14 9.34 -14 8.68 -14 8 C-12.68 8 -11.36 8 -10 8 C-10 7.34 -10 6.68 -10 6 C-9.34 6 -8.68 6 -8 6 C-8 5.34 -8 4.68 -8 4 C-6.68 4 -5.36 4 -4 4 C-4 3.34 -4 2.68 -4 2 C-2.68 2 -1.36 2 0 2 C0 1.34 0 0.68 0 0 Z " fill="#FDE501" transform="translate(816,234)"/>
<path d="M0 0 C63.0409264 0 63.0409264 0 71.6015625 8.2265625 C77.47825647 15.67912971 78.75378592 24.79010658 78 34 C76.58874335 40.93404845 73.83795198 46.44586998 67.78125 50.4765625 C61.71857542 54 61.71857542 54 58 54 C58.69546567 57.22005993 58.69546567 57.22005993 61.625 58.4375 C68.87626533 62.99793434 71.94931922 72.4047685 74.18530273 80.24804688 C75.96617474 86.2636265 78.18642755 92.14466566 80.30273438 98.04882812 C80.65013672 99.03173828 80.99753906 100.01464844 81.35546875 101.02734375 C81.67153076 101.91156006 81.98759277 102.79577637 82.31323242 103.70678711 C83 106 83 106 83 109 C75.74 109 68.48 109 61 109 C60.18015625 106.47085938 59.3603125 103.94171875 58.515625 101.3359375 C57.710205 98.87280736 56.90164198 96.41072998 56.09277344 93.94873047 C55.53479387 92.24472682 54.98005829 90.5396572 54.42871094 88.83349609 C53.63298314 86.37305979 52.82544391 83.91676667 52.015625 81.4609375 C51.77378479 80.70444916 51.53194458 79.94796082 51.28277588 79.16854858 C49.7650714 74.61256868 48.09082365 70.75827039 45 67 C37.42889336 62.71830774 37.42889336 62.71830774 21 63 C21 78.18 21 93.36 21 109 C14.07 109 7.14 109 0 109 C0 73.03 0 37.06 0 0 Z " fill="#010101" transform="translate(414,297)"/>
<path d="M0 0 C60.79820628 0 60.79820628 0 72.77734375 11.7421875 C78.81866172 18.86178472 80.62305804 28.39507761 80.28515625 37.5625 C79.21967778 46.67015159 75.59932341 54.76786113 69 61.1875 C59.11910942 68.78167416 48.23076855 69.69113484 36.1875 69.3125 C31.505625 69.209375 26.82375 69.10625 22 69 C22 82.53 22 96.06 22 110 C14.74 110 7.48 110 0 110 C0 73.7 0 37.4 0 0 Z " fill="#070707" transform="translate(313,296)"/>
<path d="M0 0 C23.76 0 47.52 0 72 0 C72 5.61 72 11.22 72 17 C55.17 17 38.34 17 21 17 C21 25.58 21 34.16 21 43 C35.85 43 50.7 43 66 43 C66 48.94 66 54.88 66 61 C51.15 61 36.3 61 21 61 C21 70.9 21 80.8 21 91 C38.49 91 55.98 91 74 91 C74 96.94 74 102.88 74 109 C49.58 109 25.16 109 0 109 C0 73.03 0 37.06 0 0 Z " fill="#020202" transform="translate(517,297)"/>
<path d="M0 0 C23.76 0 47.52 0 72 0 C72 5.61 72 11.22 72 17 C55.17 17 38.34 17 21 17 C21 25.58 21 34.16 21 43 C35.85 43 50.7 43 66 43 C66 48.94 66 54.88 66 61 C51.15 61 36.3 61 21 61 C21 70.9 21 80.8 21 91 C38.49 91 55.98 91 74 91 C74 96.94 74 102.88 74 109 C49.58 109 25.16 109 0 109 C0 73.03 0 37.06 0 0 Z " fill="#030303" transform="translate(119,297)"/>
<path d="M0 0 C1.30009791 0.94686376 2.59299292 1.90378252 3.875 2.875 C4.865 3.535 5.855 4.195 6.875 4.875 C6.875 5.865 6.875 6.855 6.875 7.875 C6.215 7.875 5.555 7.875 4.875 7.875 C4.66875 8.535 4.4625 9.195 4.25 9.875 C2.36347129 13.99106263 -0.33067979 17.3337703 -3.125 20.875 C-5.86641613 20.30721716 -7.06097967 19.92960558 -9.25 18.0625 C-17.90094993 11.48025549 -27.60573177 10.56696142 -38.125 11.875 C-42.01947253 13.36357836 -45.22183607 15.06867213 -47.125 18.875 C-47.38797155 22.88531621 -47.48201465 25.82775703 -46.1875 29.625 C-40.60783366 35.71190874 -31.50597845 36.83991868 -23.75 38.3125 C-0.42196149 43.07913974 -0.42196149 43.07913974 6.05078125 52.60546875 C7.05880816 54.32461282 7.9708637 56.09901798 8.875 57.875 C9.23335937 58.43960938 9.59171875 59.00421875 9.9609375 59.5859375 C12.8330114 66.77839607 11.67610148 77.7148208 9.3125 84.9375 C5.59582821 93.50143953 -0.4650533 99.38940523 -9.125 102.875 C-15.41634536 104.80923239 -21.18735024 105.22685195 -27.75 105.1875 C-29.20152466 105.18012817 -29.20152466 105.18012817 -30.68237305 105.17260742 C-45.7657464 104.92760469 -58.12939632 101.60314305 -69.125 90.875 C-71.125 88.75 -71.125 88.75 -72.125 86.875 C-71.82241143 82.5606727 -68.7702649 79.73874341 -66.0625 76.625 C-65.59005859 76.07070313 -65.11761719 75.51640625 -64.63085938 74.9453125 C-63.46841033 73.583251 -62.29752145 72.22840044 -61.125 70.875 C-57.81163709 72.29501267 -55.938214 74.0039181 -53.5625 76.6875 C-46.24899264 84.02774779 -38.98173746 86.29749025 -28.8125 86.4375 C-28.04760254 86.45232422 -27.28270508 86.46714844 -26.49462891 86.48242188 C-21.28817636 86.38678618 -18.24042934 85.30556212 -14.125 81.875 C-11.00607771 77.19661656 -11.2963135 72.34285109 -12.125 66.875 C-17.40060197 60.41238759 -25.82005076 58.82700334 -33.68701172 57.13964844 C-45.85427815 54.52716725 -57.38848795 52.04293482 -64.7890625 41.140625 C-65.22992187 40.39296875 -65.67078125 39.6453125 -66.125 38.875 C-66.48335937 38.27171875 -66.84171875 37.6684375 -67.2109375 37.046875 C-70.6023825 29.8906149 -70.39463115 20.44444544 -68.31640625 12.96484375 C-64.63131572 4.71483138 -58.16282791 -1.11644339 -49.875 -4.5625 C-34.24519158 -10.25767529 -13.98775147 -9.10207751 0 0 Z " fill="#040404" transform="translate(674.125,302.125)"/>
<path d="M0 0 C1.70331934 1.28617991 3.39050729 2.59818376 5 4 C4.44151174 8.18358477 1.95553698 11.02629569 -0.5625 14.25 C-0.98724609 14.80429687 -1.41199219 15.35859375 -1.84960938 15.9296875 C-2.89398341 17.29089411 -3.94622464 18.64605833 -5 20 C-7.3762284 18.85802616 -9.62434841 17.62707838 -11.890625 16.2734375 C-21.06111822 11.09104249 -28.52130126 9.55348398 -39 11 C-42.84520102 12.09941811 -46.00688575 13.35920254 -48.16796875 16.9296875 C-49.4672504 20.16264184 -49.41638894 22.54992024 -49 26 C-45.28426703 32.03806608 -40.53585432 33.91466692 -33.77978516 35.53125 C-31.4614851 36.00402495 -29.13857642 36.44221948 -26.8125 36.875 C-14.52156264 39.35372411 -3.56235556 42.24468704 5 52 C6.9375 55.125 6.9375 55.125 8 58 C8.34417969 58.92167969 8.68835938 59.84335937 9.04296875 60.79296875 C11.81255285 70.07390159 10.30594723 79.4678453 6 88 C0.52064912 97.14251242 -6.9307768 101.08989886 -17 104 C-33.96384166 106.98437955 -50.57057143 104.95993576 -65 95 C-72.44186047 88.6744186 -72.44186047 88.6744186 -74 84 C-73.10375977 82.37426758 -73.10375977 82.37426758 -71.69140625 80.64453125 C-71.19189453 80.02255859 -70.69238281 79.40058594 -70.17773438 78.75976562 C-69.64470703 78.11716797 -69.11167969 77.47457031 -68.5625 76.8125 C-68.03333984 76.15830078 -67.50417969 75.50410156 -66.95898438 74.83007812 C-65.64847072 73.21259731 -64.32539058 71.60531307 -63 70 C-59.2936833 70.77076162 -58.15596793 71.701068 -55.875 74.75 C-51.33210982 80.22703427 -45.65177347 82.78274218 -39 85 C-36.21387601 85.17466964 -33.47507588 85.27697439 -30.6875 85.3125 C-29.94048828 85.34150391 -29.19347656 85.37050781 -28.42382812 85.40039062 C-23.12969483 85.46081532 -20.21456553 84.47269967 -16 81 C-13.03465148 77.44158178 -12.51118293 74.42202729 -12.72265625 69.921875 C-13.15564701 66.92143201 -14.02012714 65.29920719 -16 63 C-21.7975686 59.05486308 -27.35745223 57.84341169 -34.1875 56.5625 C-47.0080226 53.943058 -58.47535398 51.54679801 -66.2734375 40.13671875 C-71.21741672 31.94934891 -71.23512725 21.79473838 -69.3125 12.5625 C-66.05515285 3.72112917 -60.31089624 -0.76912284 -52.0390625 -5.00390625 C-37.24624697 -11.68974209 -13.17744096 -9.46221532 0 0 Z " fill="#030303" transform="translate(770,303)"/>
<path d="M0 0 C5.8324895 -0.4590843 11.65255829 -0.7289548 17.50390625 -0.62109375 C18.4585376 -0.60747803 19.41316895 -0.5938623 20.39672852 -0.57983398 C23.8021701 0.1786696 24.97115972 1.57849918 27.0625 4.3125 C27.76688449 6.18736725 28.41263586 8.08524464 29 10 C29.87787136 11.70800349 30.7963892 13.39559854 31.75 15.0625 C32.23210937 15.9596875 32.71421875 16.856875 33.2109375 17.78125 C35.94451649 22.69930478 38.84079528 27.52157566 41.74902344 32.33813477 C42.16958008 33.04252686 42.59013672 33.74691895 43.0234375 34.47265625 C43.40419434 35.10437744 43.78495117 35.73609863 44.17724609 36.38696289 C45 38 45 38 45 40 C45.99 40 46.98 40 48 40 C48.26192139 39.12835205 48.52384277 38.2567041 48.79370117 37.35864258 C49.99560029 34.01224992 51.44908727 31.29035197 53.30078125 28.26171875 C53.94853516 27.19373047 54.59628906 26.12574219 55.26367188 25.02539062 C55.93978516 23.92388672 56.61589844 22.82238281 57.3125 21.6875 C58.64331723 19.50475321 59.97276938 17.32117349 61.30078125 15.13671875 C61.89028564 14.17467529 62.47979004 13.21263184 63.0871582 12.22143555 C65.47676265 8.19707937 67.72702236 4.09135976 70 0 C77.26 0 84.52 0 92 0 C90.20978733 4.47553169 88.09418881 8.39655564 85.625 12.5 C81.05281053 20.17641626 76.60039249 27.91546581 72.19970703 35.69140625 C71.48790283 36.944375 71.48790283 36.944375 70.76171875 38.22265625 C70.30458496 39.02848145 69.84745117 39.83430664 69.37646484 40.66455078 C68.03822045 42.93515132 66.60486891 45.11526411 65.14453125 47.30859375 C63.22637992 50.39744958 62.13828693 52.30694399 63 56 C64.30975985 58.5722146 65.65911033 60.9393365 67.1875 63.375 C68.10635115 64.88539198 69.022893 66.39719049 69.9375 67.91015625 C70.43121094 68.72371582 70.92492187 69.53727539 71.43359375 70.37548828 C74.27507584 75.13638798 76.97425993 79.97774964 79.6875 84.8125 C83.6841548 91.9234237 87.71372994 99.00219131 91.92578125 105.98828125 C93 108 93 108 93 110 C85.71876812 110.92353338 78.21236897 111.70664777 71 110 C66.88072237 106.59830929 65.24825054 102.51148459 63.23925781 97.70361328 C60.87766257 92.5514648 57.87285718 87.72958292 54.99191284 82.85467529 C53.29418655 79.96906636 51.63084175 77.06419727 49.96484375 74.16015625 C49.3937085 73.16636963 48.82257324 72.17258301 48.23413086 71.14868164 C47.82686768 70.4396167 47.41960449 69.73055176 47 69 C46.01 69 45.02 69 44 69 C43.71801758 69.50861572 43.43603516 70.01723145 43.14550781 70.54125977 C41.84746821 72.88193028 40.54873841 75.22221716 39.25 77.5625 C38.58484375 78.76229492 38.58484375 78.76229492 37.90625 79.98632812 C37.46796875 80.77587891 37.0296875 81.56542969 36.578125 82.37890625 C36.14056885 83.16724854 35.7030127 83.95559082 35.25219727 84.76782227 C34.16130817 86.71245065 33.04462664 88.63851499 31.91796875 90.5625 C30.49851971 93.10652271 29.3142816 95.52765294 28.16015625 98.18359375 C26.04753526 102.65786363 24.00680807 106.94500075 20 110 C13.21082006 111.96102598 5.90050979 110.99041267 -1 110 C0.61718574 104.07031895 3.62190638 99.0842362 6.6875 93.8125 C7.22987305 92.87067871 7.77224609 91.92885742 8.33105469 90.95849609 C11.52542669 85.44137839 14.84325219 80.03678237 18.3359375 74.703125 C20.90360402 70.53217375 23.16253359 66.20237158 25.42480469 61.85986328 C27.91285926 57.08714074 27.91285926 57.08714074 29 56 C29.50934853 51.56641924 28.24472588 49.16041957 25.9296875 45.4296875 C25.28 44.3675 24.6303125 43.3053125 23.9609375 42.2109375 C23.27257812 41.11007812 22.58421875 40.00921875 21.875 38.875 C20.53689637 36.70706466 19.20093916 34.53780295 17.8671875 32.3671875 C16.88564697 30.77136841 16.88564697 30.77136841 15.88427734 29.14331055 C13.5823987 25.30336659 11.45193501 21.38658024 9.33544922 17.44238281 C6.93545455 13.05306899 4.21996933 8.87452098 1.5390625 4.65234375 C0 2 0 2 0 0 Z " fill="#050505" transform="translate(203,296)"/>
<path d="M0 0 C1.29647461 -0.0309375 1.29647461 -0.0309375 2.61914062 -0.0625 C10.40439374 -0.1095053 16.54247595 1.49953424 22.6875 6.4375 C23.69296875 7.23220703 23.69296875 7.23220703 24.71875 8.04296875 C25.2034375 8.44128906 25.688125 8.83960938 26.1875 9.25 C24.7970501 12.35442031 23.17178402 14.6156443 20.8125 17.0625 C20.22726562 17.68769531 19.64203125 18.31289063 19.0390625 18.95703125 C17.1875 20.25 17.1875 20.25 15.1796875 20.078125 C13.2115348 19.25999093 11.50373894 18.29875146 9.6875 17.1875 C4.52314252 14.53736919 -1.14185942 14.14827554 -6.8125 15.25 C-9.22282062 16.97202585 -9.22282062 16.97202585 -10.8125 19.25 C-11.05927006 22.35293293 -11.05927006 22.35293293 -9.8125 25.25 C-4.82084438 29.17344132 1.55494776 29.89539908 7.61914062 31.1796875 C15.7149026 33.03713025 22.48935439 36.10881868 27.1875 43.25 C29.36690035 49.78820104 29.19680024 58.09738836 26.34375 64.4375 C22.303154 70.77140725 16.68692985 74.19120194 9.44921875 75.81640625 C-0.36793533 77.1214411 -10.6852886 77.55340011 -19.8125 73.25 C-20.864375 72.8375 -21.91625 72.425 -23 72 C-26.72796226 69.68037904 -29.1479209 66.69883465 -31.8125 63.25 C-28.60489749 59.44364503 -25.40503891 55.70436433 -21.8125 52.25 C-19.07723045 53.4535186 -16.8127847 54.96458645 -14.4375 56.75 C-8.94580634 60.70262028 -3.5124743 62.08916179 3.1875 61.25 C6.64146101 60.31636718 6.64146101 60.31636718 9.1875 58.25 C10.35825556 55.01320522 10.59586456 53.27091139 9.3125 50.0625 C4.44094388 45.90734919 -2.2665348 45.14493644 -8.375 43.875 C-15.41623902 42.31028022 -20.93716916 39.63061723 -25.8125 34.25 C-29.39203343 27.62123439 -29.97649322 21.38983437 -27.8125 14.125 C-25.3597677 8.22900889 -19.96734345 4.6865623 -14.8125 1.25 C-10.00051929 -0.16368925 -4.9738704 0.02927959 0 0 Z " fill="#070402" transform="translate(965.8125,324.75)"/>
<path d="M0 0 C6.27 0 12.54 0 19 0 C19.06795406 9.62334079 19.1229186 19.2465205 19.15543652 28.87004757 C19.17104864 33.33931884 19.19220489 37.80841651 19.22631836 42.27758789 C19.25907152 46.5958939 19.27688646 50.9140336 19.28463173 55.2324543 C19.29014673 56.87457456 19.30091582 58.5166864 19.31719017 60.15873528 C19.42998152 72.01786318 18.73010613 82.33736734 11 92 C3.87741286 97.85634943 -3.71978432 99.56572923 -12.6875 99.5 C-13.99763062 99.49468262 -13.99763062 99.49468262 -15.33422852 99.48925781 C-25.20790631 99.23820898 -33.44874709 96.60253863 -41 90 C-45.05080093 84.98979884 -45.05080093 84.98979884 -44.87890625 81.640625 C-43.74603733 78.23698326 -41.99265506 76.31206747 -39.5625 73.6875 C-38.35787109 72.36298828 -38.35787109 72.36298828 -37.12890625 71.01171875 C-35 69 -35 69 -33 69 C-32.07227995 70.38271651 -31.20762643 71.80802127 -30.375 73.25 C-27.30534931 77.96968084 -24.47262243 80.51471632 -19 82 C-13.80318748 82.67937957 -8.72336046 82.41928219 -4 80 C-2.61141128 77.57114212 -2.61141128 77.57114212 -2 75 C-1.67 74.34 -1.34 73.68 -1 73 C-0.87879701 70.69275983 -0.8224643 68.38203172 -0.79467773 66.07177734 C-0.78477814 65.35947464 -0.77487854 64.64717194 -0.76467896 63.9132843 C-0.73304142 61.55420274 -0.7082977 59.19510103 -0.68359375 56.8359375 C-0.66302616 55.20211253 -0.64202974 53.56829292 -0.62062073 51.93447876 C-0.56537987 47.63057784 -0.5159795 43.32662874 -0.46777344 39.02264404 C-0.4175731 34.63223982 -0.36187939 30.24190571 -0.30664062 25.8515625 C-0.1990344 17.23443263 -0.09810245 8.61724332 0 0 Z " fill="#070403" transform="translate(899,302)"/>
<path d="M0 0 C4.145625 -0.0825 8.29125 -0.165 12.5625 -0.25 C14.50298218 -0.30462402 14.50298218 -0.30462402 16.48266602 -0.36035156 C23.20520145 -0.42503647 27.62757418 -0.20286683 33 4 C36.56867861 9.64081457 36.82901836 15.44321839 36 22 C34.67990518 26.71462437 33.04605097 29.18816099 29.15625 32.20703125 C23.82440133 35.08476875 17.94886835 34.42266782 12.0625 34.25 C6.0915625 34.12625 6.0915625 34.12625 0 34 C0 22.78 0 11.56 0 0 Z " fill="#FBFBFB" transform="translate(335,314)"/>
<path d="M0 0 C3.96 -0.0825 7.92 -0.165 12 -0.25 C13.84851563 -0.30462402 13.84851563 -0.30462402 15.734375 -0.36035156 C22.28473666 -0.42610973 27.69437307 -0.14986155 33 4 C35.97440161 7.57398455 36.41010857 10.41248036 36.375 15 C36.38660156 16.5159375 36.38660156 16.5159375 36.3984375 18.0625 C35.74452672 22.88348926 33.8772091 25.32809515 30.0625 28.25 C25.73918599 30.72046515 22.52436247 31.12513535 17.578125 31.09765625 C16.65418945 31.09515869 15.73025391 31.09266113 14.77832031 31.09008789 C13.61397461 31.08098389 12.44962891 31.07187988 11.25 31.0625 C7.5375 31.041875 3.825 31.02125 0 31 C0 20.77 0 10.54 0 0 Z " fill="#F3F3F3" transform="translate(435,313)"/>
<path d="M0 0 C0.33 0 0.66 0 1 0 C1 5.28 1 10.56 1 16 C-15.83 16 -32.66 16 -50 16 C-50 22.6 -50 29.2 -50 36 C-50.66 37.32 -51.32 38.64 -52 40 C-52 31.42 -52 22.84 -52 14 C-34.84 14 -17.68 14 0 14 C0 9.38 0 4.76 0 0 Z " fill="#D9D9D9" transform="translate(590,300)"/>
<path d="M0 0 C0.33 0 0.66 0 1 0 C1.06941159 10.13535144 1.12276615 20.27064664 1.15543652 30.40618706 C1.17111411 35.11218517 1.19239036 39.81802105 1.22631836 44.52392578 C1.25883745 49.0626498 1.27683723 53.60121748 1.28463173 58.14004898 C1.29018868 59.87447701 1.30103963 61.60889617 1.31719017 63.3432579 C1.33886587 65.76662658 1.34197113 68.18934347 1.34057617 70.61279297 C1.351362 71.33496002 1.36214783 72.05712708 1.3732605 72.80117798 C1.36076355 74.79830933 1.36076355 74.79830933 1 78 C-0.485 78.99 -0.485 78.99 -2 80 C-1.93148331 79.46710358 -1.86296661 78.93420715 -1.79237366 78.38516235 C-0.84682674 70.17454417 -0.77631895 61.96458408 -0.68359375 53.7109375 C-0.66297951 52.15580754 -0.64198202 50.60068262 -0.62062073 49.04556274 C-0.5658609 44.98508833 -0.51625168 40.92456729 -0.46777344 36.86401367 C-0.41721822 32.70747816 -0.36171115 28.55100896 -0.30664062 24.39453125 C-0.19962427 16.26307718 -0.09805784 8.13156702 0 0 Z " fill="#F2E727" transform="translate(919,302)"/>
<path d="M0 0 C0.33 0 0.66 0 1 0 C1 5.28 1 10.56 1 16 C0.34 16.33 -0.32 16.66 -1 17 C-3.21264666 12.57470667 -2.29045294 7.03473859 -1 2.4375 C-0.67 1.633125 -0.34 0.82875 0 0 Z " fill="#2B1704" transform="translate(939,337)"/>
<path d="M0 0 C1.3293457 0.00483398 1.3293457 0.00483398 2.68554688 0.00976562 C4.05356445 0.02233398 4.05356445 0.02233398 5.44921875 0.03515625 C6.38056641 0.03966797 7.31191406 0.04417969 8.27148438 0.04882812 C10.55996248 0.06056391 12.84830683 0.07698262 15.13671875 0.09765625 C15.13671875 0.42765625 15.13671875 0.75765625 15.13671875 1.09765625 C14.06550781 1.15824219 12.99429688 1.21882813 11.890625 1.28125 C10.49347484 1.36564162 9.09634018 1.45029031 7.69921875 1.53515625 C6.63864258 1.59413086 6.63864258 1.59413086 5.55664062 1.65429688 C2.04981456 1.57390063 2.04981456 1.57390063 -0.86328125 3.09765625 C-2.54937091 3.16971136 -4.23828784 3.18151693 -5.92578125 3.16015625 C-6.84488281 3.15113281 -7.76398437 3.14210938 -8.7109375 3.1328125 C-9.42121094 3.12121094 -10.13148438 3.10960937 -10.86328125 3.09765625 C-10.53328125 2.43765625 -10.20328125 1.77765625 -9.86328125 1.09765625 C-6.54992607 0.18971599 -3.4220938 -0.02207802 0 0 Z " fill="#2D2008" transform="translate(960.86328125,324.90234375)"/>
<path d="M0 0 C5.94 0 11.88 0 18 0 C13.91748364 3.06188727 13.43502071 3.37243503 8.75 3.1875 C7.85796875 3.16042969 6.9659375 3.13335937 6.046875 3.10546875 C5.37140625 3.07066406 4.6959375 3.03585937 4 3 C4 2.34 4 1.68 4 1 C2.68 0.67 1.36 0.34 0 0 Z " fill="#E8D627" transform="translate(958,401)"/>
<path d="M0 0 C1.61648438 0.04060547 1.61648438 0.04060547 3.265625 0.08203125 C4.08546875 0.11683594 4.9053125 0.15164063 5.75 0.1875 C5.75 0.5175 5.75 0.8475 5.75 1.1875 C5.15832031 1.22488281 4.56664062 1.26226562 3.95703125 1.30078125 C-2.67656854 1.80363398 -2.67656854 1.80363398 -8.25 5.1875 C-9.14207179 8.2832107 -9.14207179 8.2832107 -9.25 11.1875 C-9.91 10.5275 -10.57 9.8675 -11.25 9.1875 C-11.10938584 5.88306728 -10.95775391 3.90189949 -8.5859375 1.5078125 C-5.5578732 -0.20370211 -3.45469646 -0.11265315 0 0 Z " fill="#C5BA2A" transform="translate(965.25,338.8125)"/>
<path d="M0 0 C0.66 1.32 1.32 2.64 2 4 C0.25 5.125 0.25 5.125 -2 6 C-4.25 5.125 -4.25 5.125 -6 4 C-2.25 0 -2.25 0 0 0 Z " fill="#1D0D09" transform="translate(866,371)"/>
<path d="M0 0 C9.41002278 -0.3690205 9.41002278 -0.3690205 14 2 C14 2.33 14 2.66 14 3 C8.78020872 3.1799928 4.92737019 2.97094808 0 1 C0 0.67 0 0.34 0 0 Z " fill="#AEA321" transform="translate(955,384)"/>
<path d="M0 0 C1 3 1 3 0.22265625 4.82421875 C-0.8515625 6.54947917 -1.92578125 8.27473958 -3 10 C-3.99 10 -4.98 10 -6 10 C-6 9.34 -6 8.68 -6 8 C-5.34 8 -4.68 8 -4 8 C-3.71125 7.236875 -3.4225 6.47375 -3.125 5.6875 C-2 3 -2 3 0 0 Z " fill="#251D05" transform="translate(899,374)"/>
<path d="M0 0 C0 3.66842255 -0.79029126 5.10451959 -3 8 C-5.6875 8.8125 -5.6875 8.8125 -8 9 C-7.04270084 7.87411986 -6.08412105 6.7493285 -5.125 5.625 C-4.59132813 4.99851562 -4.05765625 4.37203125 -3.5078125 3.7265625 C-2.38567993 2.44163349 -1.20628025 1.20628025 0 0 Z " fill="#DBC91E" transform="translate(991,336)"/>
<path d="M0 0 C2.05825864 4.11651727 2.34008135 4.86808251 1 9 C0.01 9.495 0.01 9.495 -1 10 C-0.67 6.7 -0.34 3.4 0 0 Z " fill="#E4D613" transform="translate(918,372)"/>
<path d="M0 0 C1 4 1 4 0 7 C-1.65 7.33 -3.3 7.66 -5 8 C-3.35 5.36 -1.7 2.72 0 0 Z " fill="#E1CF13" transform="translate(992,387)"/>
</svg>
